<svg width="70" height="70" viewBox="0 0 70 70" fill="none" xmlns="http://www.w3.org/2000/svg">
<g clip-path="url(#clip0_78_6)">
<path d="M45.2083 59.7917H11.6666C8.45831 59.7917 5.83331 57.1667 5.83331 53.9584V16.0417C5.83331 12.8334 8.45831 10.2084 11.6666 10.2084H58.3333C61.5416 10.2084 64.1666 12.8334 64.1666 16.0417V40.8334C64.1666 51.3334 55.7083 59.7917 45.2083 59.7917Z" fill="#8CBCD6"/>
<path d="M51.0417 27.7084C53.4579 27.7084 55.4167 25.7496 55.4167 23.3334C55.4167 20.9171 53.4579 18.9584 51.0417 18.9584C48.6254 18.9584 46.6667 20.9171 46.6667 23.3334C46.6667 25.7496 48.6254 27.7084 51.0417 27.7084Z" fill="#B3DDF5"/>
<path d="M29.1667 23.3334L13.125 46.6667H45.2083L29.1667 23.3334Z" fill="#9AC9E3"/>
<path d="M45.2084 32.0834L33.5417 46.6667H56.875L45.2084 32.0834Z" fill="#B3DDF5"/>
<path d="M69.5625 42.4375L65.4792 38.3541C64.8958 37.7708 63.875 37.7708 63.1458 38.3541L61.25 40.25L67.6667 46.6666L69.5625 44.7708C70.1458 44.1875 70.1458 43.1666 69.5625 42.4375Z" fill="#E57373"/>
<path d="M40.056 61.4935L57.9979 43.5531L64.3912 49.9464L46.4479 67.8854L40.056 61.4935Z" fill="#FF9800"/>
<path d="M67.6667 46.7221L64.47 49.9187L58.0781 43.5254L61.2748 40.3302L67.6667 46.7221Z" fill="#B0BEC5"/>
<path d="M40.1042 61.5416L37.9167 70L46.375 67.8125L40.1042 61.5416Z" fill="#FFC107"/>
<path d="M38.9375 65.625L37.9167 70L42.2917 68.9792L38.9375 65.625Z" fill="#37474F"/>
</g>
<defs>
<clipPath id="clip0_78_6">
<rect width="70" height="70" fill="white"/>
</clipPath>
</defs>
</svg>
